<svg width="89" height="83" viewBox="0 0 89 83" fill="none" xmlns="http://www.w3.org/2000/svg">
<path fill-rule="evenodd" clip-rule="evenodd" d="M50.3441 5.31734C50.2848 5.12528 50.2848 5.12528 50.2848 4.96277C50.2298 3.70324 50.6791 2.47349 51.5339 1.54365C52.3887 0.613807 53.5792 0.059934 54.8438 0.00370008C56.1071 -0.0458234 57.3389 0.403409 58.2713 1.25369C59.2038 2.10398 59.7615 3.28654 59.823 4.54418C59.8808 5.80031 59.4358 7.02795 58.5857 7.95768C57.7356 8.8874 56.5499 9.44326 55.2888 9.50325C55.1553 9.52294 54.9822 9.50325 54.7894 9.50325C54.7103 9.52294 54.5916 9.52294 54.5125 9.61159C54.2356 10.0253 55.2047 9.97108 54.4878 11.7784C54.4878 11.7784 54.4878 11.9655 54.4284 12.1576C54.3691 12.847 54.0329 14.9252 53.9537 16.0628C54.0971 16.2598 54.1515 16.309 54.0971 16.703C53.9886 17.5858 53.8401 18.4633 53.6521 19.3327C53.4543 20.0222 53.1774 20.1896 52.9253 20.3275C52.5643 21.795 52.4555 23.0114 51.5358 24.7843C51.427 26.1435 51.3133 26.5079 51.0117 27.1678C50.9276 29.1376 51.0611 29.4331 49.6222 32.5897C49.2266 34.0671 49.5382 35.0865 49.8695 36.6328C50.2057 38.2136 51.2342 38.9031 51.343 40.538C51.5902 44.3349 51.427 46.9646 50.537 49.9293L51.2045 51.643C52.0945 52.0567 54.2603 53.2484 52.9846 54.9671C54.6806 55.9028 57.2617 56.9074 59.3137 58.8132C60.184 59.5371 61.0444 60.3645 61.8504 61.2755C63.4129 61.5562 63.2151 61.6695 64.3523 62.4131C67.69 64.5701 73.0006 68.8348 76.086 71.7994C76.6398 72.1293 76.8129 72.3509 77.253 72.6021C77.3024 72.7154 77.337 72.7695 77.3024 72.7991C77.1739 73.1536 77.1738 73.1536 77.0057 73.4885C77.1986 73.6855 77.4755 73.848 77.6683 74.0155C77.8661 74.0401 77.8661 73.9859 78.143 73.9317C78.5336 74.2912 79.033 74.5966 79.2012 74.5966C79.7253 74.4882 79.6165 74.5719 80.1159 74.1041C80.2593 73.9317 80.5313 74.1041 80.5313 74.1041C80.7291 73.9071 81.09 73.5181 81.5894 73.2374C81.9801 73.0158 82.7267 73.0158 82.7267 73.0158C82.9838 73.0453 82.9245 73.2669 82.8701 73.3753C82.5882 73.4885 81.9801 73.656 81.6488 73.9071C80.8972 74.5965 80.284 75.6455 80.284 75.6455C81.7625 75.483 82.6772 75.8671 83.8392 75.7588C84.5117 75.7341 85.0111 75.7883 85.7034 75.3155C85.7034 75.3155 86.3956 74.8428 87.0137 74.6261C87.5972 74.3799 88.151 74.5424 88.6454 74.9314C88.9866 75.3451 89.2339 75.3451 88.6454 75.8966C88.4279 76.1183 88.151 76.3694 87.7554 76.7338C87.0978 77.3396 86.2077 78.1669 85.2831 78.8613C84.468 79.4627 83.5951 79.9823 82.6773 80.4125C81.006 81.5452 81.3916 81.2694 80.0912 82.3528C79.9429 82.4611 79.4781 82.7369 79.2852 82.8748C78.7561 83.1801 78.6177 82.9044 78.3111 82.2937C78.3111 82.2937 78.1727 82.0721 77.9155 81.6043C77.6683 81.0773 77.4705 80.4716 77.5595 80.4716C77.253 80.4371 75.9228 78.7775 75.9228 78.4525C75.6113 78.3885 74.4197 77.1721 74.39 76.9259L73.3318 76.0395C72.0808 76.2561 71.799 75.483 68.58 73.0453C68.1845 73.0158 67.6059 72.7991 66.8 72.1884C65.3264 70.9425 61.8207 68.1749 61.2422 67.84C60.5994 67.5101 59.8527 67.1801 59.3484 66.7861C58.6264 66.6778 58.2704 66.5399 57.8749 66.4562C57.4793 66.3479 57.1826 66.1755 56.2629 66.0672C54.7647 65.8455 53.2071 65.1807 51.7583 64.4076C51.0661 64.0481 50.4529 63.8806 49.8695 63.5753C48.5344 62.9647 47.3675 62.4131 46.4774 62.1964C45.4927 61.9607 44.547 61.5859 43.6689 61.0835C43.3672 60.916 43.1991 60.788 43.0063 60.724C42.5612 60.6156 42.2497 60.7535 42.0569 60.8323C40.9196 61.3642 39.8911 61.832 38.9121 62.3589C38.0221 62.8021 37.1914 63.2749 36.3013 63.7674C35.437 64.2167 34.5562 64.6339 33.6609 65.0182C33.6609 65.0182 31.0204 66.2641 29.5469 66.732C28.2613 67.7021 25.6555 69.4208 24.0732 70.2531C23.2919 70.6126 21.764 71.4941 21.0668 71.691C20.6713 71.9914 19.2324 72.9616 18.1198 73.7643C17.2298 74.3749 16.587 74.9019 16.587 74.9019C16.0628 75.3155 16.0876 75.5421 15.2025 75.1235C14.9798 75.2694 14.7652 75.4272 14.5597 75.5962C13.8674 76.0641 13.8377 75.9557 13.5608 75.9262C13.0614 76.3202 13.0021 76.1232 12.5867 76.5664C12.2851 76.9801 12.5867 76.8668 12.0033 77.0884C11.8648 77.1179 11.8055 77.2854 11.7214 77.3642C11.2566 77.7237 11.227 78.8071 10.1144 78.8613C9.44688 79.3045 9.58533 79.8609 9.14031 79.8019C9.14031 80.3042 8.25027 80.9345 8.08216 80.9345C6.63832 81.4073 6.57898 80.3534 4.88791 81.1069C4.6654 81.1857 4.32916 81.4614 3.91381 81.5205C3.16222 81.6289 2.27218 81.491 1.71838 81.0182C1.09565 80.4395 0.553512 79.7803 0.106424 79.0582C-0.145754 78.418 0.0223641 78.0339 0.912402 77.4233C1.27336 77.2017 1.32775 77.0342 1.94089 77.0096C2.23757 76.8914 2.1634 77.0589 2.68259 76.8914C2.99905 76.8126 2.99905 76.8668 3.63691 76.8668C3.77536 76.7831 3.9682 76.7584 4.25005 76.6452C4.74451 76.4777 5.2192 76.3399 5.2192 76.3399C5.2192 76.3399 5.35765 76.2266 5.83234 76.2906C6.21802 76.1183 6.66798 75.8966 6.89049 75.8129C6.83116 75.2023 6.91522 75.2023 7.18717 74.9561C7.58274 74.6507 7.63219 74.7098 7.91898 74.9068C8.02776 74.8723 8.11182 74.8428 8.05249 74.7344C8.00304 74.3749 7.75086 74.2075 7.82998 73.5181C7.7212 73.2374 7.52835 72.8828 7.58274 72.6612C7.63219 72.4396 7.7212 72.3214 7.85965 72.2721C8.00304 72.2131 8.08215 72.3017 8.14149 72.3805C8.27994 72.5479 8.38872 73.0453 8.38872 73.0453C8.41839 73.6264 8.58651 74.3257 9.14031 73.9317C9.4716 73.6264 9.55566 72.74 10.1985 72.932L10.6732 73.3506C11.0885 72.9911 11.0885 72.9911 11.3654 72.8237C11.3654 72.8237 10.9698 72.4642 11.3061 72.1589C11.5286 71.9668 11.8401 71.8289 12.3346 71.2971C13.6993 69.8591 14.4212 69.2287 15.865 68.0616C18.4293 66.1286 21.2584 64.5714 24.266 63.4374C24.9879 62.5805 25.6505 62.029 27.1586 61.9403C29.0228 58.956 32.5236 56.346 33.3296 55.9323C33.9922 54.7997 34.2691 54.908 35.1344 54.716C35.8019 54.189 35.9997 54.189 36.2716 53.6621C36.5832 52.5294 35.7178 49.4269 38.1654 49.3432C38.7192 48.6242 38.5511 48.7917 39.1346 48.1219C38.8438 47.3268 38.648 46.5003 38.5511 45.6596C38.5264 45.5808 37.582 44.8865 37.9083 44.0247C37.39 43.3658 36.9456 42.6524 36.5832 41.8972C36.4768 41.8942 36.3717 41.8742 36.2716 41.8381C36.1629 41.8135 35.9997 41.8135 35.8266 41.8135C35.4409 42.7787 35.0206 42.8378 34.3284 43.0594C33.0428 45.5808 32.5978 46.6593 29.1563 48.6833C27.7718 50.1509 27.2674 51.8351 27.2674 51.8055C27.0576 52.3082 27.0365 52.8694 27.2081 53.3863C26.9856 53.9133 27.0746 53.997 27.0746 53.997C27.124 54.2186 27.3515 54.519 27.5987 54.5485C27.9893 54.6618 28.4344 54.6618 28.38 55.1296C28.3256 55.6861 27.574 55.5728 27.2081 55.4891C25.8483 55.2429 26.2933 54.3565 25.4033 54.6322C24.7061 55.0508 24.4341 56.346 23.3463 56.1589C23.2079 56.0456 23.2623 55.7944 23.376 55.5728C23.5144 55.2774 23.7913 54.9917 23.6529 54.8834C22.931 55.0804 21.5118 55.4891 21.5118 55.4891C20.8443 55.6861 20.1224 55.2971 20.785 54.8785C21.0965 54.7701 21.5415 54.6322 22.0953 54.2974C22.0953 54.2974 22.4019 53.9428 21.8135 54.1053C21.1473 54.3045 20.45 54.3796 19.7565 54.3269C19.7565 54.3269 18.4857 54.1349 18.3126 54.0511C18.1742 53.9428 18.011 53.5242 18.3967 53.5587C19.3339 53.5443 20.2669 53.4321 21.1806 53.2238C21.6503 53.0514 22.5651 52.5344 23.0694 52.3078C23.0694 52.3078 23.6282 51.5347 23.9595 51.3722C24.4885 50.8108 24.8989 50.4857 25.344 49.8997C25.789 49.0133 26.2933 47.6344 27.8163 45.438C28.5882 44.2915 29.4745 43.2257 30.4617 42.2567C30.4617 42.2567 30.7682 40.5922 32.1577 39.4349C32.4692 38.7455 32.934 37.9083 33.4384 37.1598C33.6291 36.8944 33.8041 36.6182 33.9625 36.3324C34.4075 35.6922 34.8822 34.4759 36.5238 34.3134C36.5238 34.3134 37.2507 33.8111 37.4979 33.4516C37.9133 33.0921 37.8638 32.5356 38.1902 32.1761C37.666 31.6541 36.3854 30.6544 36.3013 29.3543C36.2472 28.7246 36.3371 28.0909 36.564 27.5007C36.7909 26.9105 37.1491 26.3791 37.6116 25.9465C38.5808 25.0354 39.5796 24.5922 40.8059 24.6759C42.3338 24.9468 42.6156 25.4491 43.0557 25.9465C43.5007 26.4439 43.6985 26.1435 43.8617 26.6655C45.1424 27.025 45.088 26.8871 45.0336 27.8277C45.2561 28.1084 45.5577 28.3595 45.528 28.8815C45.9483 28.0197 46.0621 27.8572 47.229 26.9166C47.5356 26.1435 47.7235 25.3654 47.9707 24.5627C48.2278 23.8437 48.5344 23.0951 48.7322 22.5436C48.5344 20.9382 49.0289 20.687 49.7013 19.2736C49.5926 19.0816 49.6222 19.0274 49.6717 18.7221C49.9535 17.7766 50.3441 16.5897 50.5914 15.787C50.5914 15.787 50.6754 15.4768 51.0117 15.4768C51.3083 14.482 51.788 12.6254 51.8968 12.2118C52.2033 11.1875 52.0402 10.7984 51.8473 10.1927C51.788 9.9957 51.8176 9.74947 51.699 9.52294C51.3581 8.86306 51.0447 8.18946 50.7595 7.50386C50.621 7.14436 50.3639 5.76055 50.3639 5.76055C50.3441 5.45523 50.3441 5.31734 50.3441 5.31734Z" fill="black"/>
</svg>
